<?xml version="1.0" encoding="UTF-8"?>
<svg version="1.1" xmlns="http://www.w3.org/2000/svg" width="50" height="50">
<path d="M0 0 C16.5 0 33 0 50 0 C50 16.5 50 33 50 50 C33.5 50 17 50 0 50 C0 33.5 0 17 0 0 Z " fill="#0D0E0E" transform="translate(0,0)"/>
<path d="M0 0 C0 0.66 0 1.32 0 2 C-2.31 2.33 -4.62 2.66 -7 3 C-6.04134491 5.33075929 -6.04134491 5.33075929 -3 7 C-2.40283117 10.24177364 -2.71031377 11.57126438 -4.5625 14.3125 C-7.96565857 16.66853286 -9.94203913 16.64073066 -14 16 C-17.38121991 13.55401113 -18.76936783 12.10703441 -19.625 8 C-19 5 -19 5 -17.375 2.125 C-11.95972805 -1.28461567 -6.23179623 -0.37947338 0 0 Z " fill="#0D0A03" transform="translate(34,17)"/>
<path d="M0 0 C0 0.66 0 1.32 0 2 C-0.98742187 2.03738281 -1.97484375 2.07476563 -2.9921875 2.11328125 C-4.91417969 2.21189453 -4.91417969 2.21189453 -6.875 2.3125 C-8.15117187 2.37050781 -9.42734375 2.42851562 -10.7421875 2.48828125 C-11.81726563 2.65714844 -12.89234375 2.82601563 -14 3 C-16.56687367 6.8503105 -15.83288724 8.58569763 -15 13 C-11.59679066 13.67673447 -11.59679066 13.67673447 -8 14 C-5.58878141 12.04366025 -5.58878141 12.04366025 -5.875 8.375 C-5.91625 7.26125 -5.9575 6.1475 -6 5 C-5.01 5.66 -4.02 6.32 -3 7 C-2.40283117 10.24177364 -2.71031377 11.57126438 -4.5625 14.3125 C-7.96565857 16.66853286 -9.94203913 16.64073066 -14 16 C-17.38121991 13.55401113 -18.76936783 12.10703441 -19.625 8 C-19 5 -19 5 -17.375 2.125 C-11.95972805 -1.28461567 -6.23179623 -0.37947338 0 0 Z " fill="#C29432" transform="translate(34,17)"/>
</svg>
